HIERARCHY
ROOT Hips
{
	OFFSET 0.000000 0.000000 0.000000
	CHANNELS 6 Xposition Yposition Zposition Zrotation Yrotation Xrotation 
	JOINT LHipJoint
	{
		OFFSET 0.000000 0.000000 0.000000
		CHANNELS 3 Zrotation Yrotation Xrotation
		JOINT LeftUpLeg
		{
			OFFSET 1.363060 -1.794630 0.839290
			CHANNELS 3 Zrotation Yrotation Xrotation
			JOINT LeftLeg
			{
				OFFSET 2.448110 -6.726130 0.000000
				CHANNELS 3 Zrotation Yrotation Xrotation
				JOINT LeftFoot
				{
					OFFSET 2.562200 -7.039590 0.000000
					CHANNELS 3 Zrotation Yrotation Xrotation
					JOINT LeftToeBase
					{
						OFFSET 0.157640 -0.433110 2.322550
						CHANNELS 3 Zrotation Yrotation Xrotation
						End Site
						{
							OFFSET 0.000000 0.000000 0.000000
						}
					}
				}
			}
		}
	}
	JOINT RHipJoint
	{
		OFFSET 0.000000 0.000000 0.000000
		CHANNELS 3 Zrotation Yrotation Xrotation
		JOINT RightUpLeg
		{
			OFFSET -1.305520 -1.794630 0.839290
			CHANNELS 3 Zrotation Yrotation Xrotation
			JOINT RightLeg
			{
				OFFSET -2.542530 -6.985550 0.000000
				CHANNELS 3 Zrotation Yrotation Xrotation
				JOINT RightFoot
				{
					OFFSET -2.568260 -7.056230 0.000000
					CHANNELS 3 Zrotation Yrotation Xrotation
					JOINT RightToeBase
					{
						OFFSET -0.164730 -0.452590 2.363150
						CHANNELS 3 Zrotation Yrotation Xrotation
						End Site
						{
							OFFSET 0.000000 0.000000 0.000000
						}
					}
				}
			}
		}
	}
	JOINT LowerBack
	{
		OFFSET 0.000000 0.000000 0.000000
		CHANNELS 3 Zrotation Yrotation Xrotation
		JOINT Spine
		{
			OFFSET 0.028270 2.035590 -0.193380
			CHANNELS 3 Zrotation Yrotation Xrotation
			JOINT Spine1
			{
				OFFSET 0.056720 2.048850 -0.042750
				CHANNELS 3 Zrotation Yrotation Xrotation
				JOINT Neck
				{
					OFFSET 0.000000 0.000000 0.000000
					CHANNELS 3 Zrotation Yrotation Xrotation
					JOINT Neck1
					{
						OFFSET -0.054170 1.746240 0.172020
						CHANNELS 3 Zrotation Yrotation Xrotation
						JOINT Head
						{
							OFFSET 0.104070 1.761360 -0.123970
							CHANNELS 3 Zrotation Yrotation Xrotation
							End Site
							{
								OFFSET 0.000000 0.000000 0.000000
							}
						}
					}
				}
				JOINT LeftShoulder
				{
					OFFSET 0.000000 0.000000 0.000000
					CHANNELS 3 Zrotation Yrotation Xrotation
					JOINT LeftArm
					{
						OFFSET 3.362410 1.200890 -0.311210
						CHANNELS 3 Zrotation Yrotation Xrotation
						JOINT LeftForeArm
						{
							OFFSET 4.983000 -0.000000 -0.000000
							CHANNELS 3 Zrotation Yrotation Xrotation
							JOINT LeftHand
							{
								OFFSET 3.483560 -0.000000 -0.000000
								CHANNELS 3 Zrotation Yrotation Xrotation
								JOINT LeftFingerBase
								{
									OFFSET 0.000000 0.000000 0.000000
									CHANNELS 3 Zrotation Yrotation Xrotation
									JOINT LeftHandIndex1
									{
										OFFSET 0.715260 -0.000000 -0.000000
										CHANNELS 3 Zrotation Yrotation Xrotation
										End Site
										{
											OFFSET 0.000000 0.000000 0.000000
										}
									}
								}
								JOINT LThumb
								{
									OFFSET 0.000000 0.000000 0.000000
									CHANNELS 3 Zrotation Yrotation Xrotation
									End Site
									{
										OFFSET 0.000000 0.000000 0.000000
									}
								}
							}
						}
					}
				}
				JOINT RightShoulder
				{
					OFFSET 0.000000 0.000000 0.000000
					CHANNELS 3 Zrotation Yrotation Xrotation
					JOINT RightArm
					{
						OFFSET -3.136600 1.374050 -0.404650
						CHANNELS 3 Zrotation Yrotation Xrotation
						JOINT RightForeArm
						{
							OFFSET -5.241900 -0.000000 -0.000000
							CHANNELS 3 Zrotation Yrotation Xrotation
							JOINT RightHand
							{
								OFFSET -3.444170 -0.000000 -0.000000
								CHANNELS 3 Zrotation Yrotation Xrotation
								JOINT RightFingerBase
								{
									OFFSET 0.000000 0.000000 0.000000
									CHANNELS 3 Zrotation Yrotation Xrotation
									JOINT RightHandIndex1
									{
										OFFSET -0.622530 -0.000000 -0.000000
										CHANNELS 3 Zrotation Yrotation Xrotation
										End Site
										{
											OFFSET 0.000000 0.000000 0.000000
										}
									}
								}
								JOINT RThumb
								{
									OFFSET 0.000000 0.000000 0.000000
									CHANNELS 3 Zrotation Yrotation Xrotation
									End Site
									{
										OFFSET 0.000000 0.000000 0.000000
									}
								}
							}
						}
					}
				}
			}
		}
	}
}
MOTION
Frames: 6
Frame Time: 0.033333
0.447807 17.061823 -3.165553 -5.201670 -12.648109 15.691802 -12.670667 2.127687 4.559513 1.149408 0.957971 -28.204822 -10.342954 2.301073 -3.762431 2.297610 -4.394250 7.877949 -0.045314 0.002923 -39.731729 15.416549 1.151809 -5.104932 10.819896 -8.103164 -27.615647 4.885981 -4.130236 50.802930 -0.368243 -7.249273 -0.842788 -0.345705 0.160058 -35.003341 -1.149679 2.105573 -8.542064 -0.040905 -1.128291 -4.700386 -6.478174 -2.744281 3.054136 11.182070 -11.306261 -9.593921 -2.470815 -0.323536 -0.143638 0.013184 -0.001261 0.068259 4.970314 5.984661 -1.841458 -62.424664 -7.216560 16.151129 2.669812 -28.844942 -1.235997 5.573903 -4.523210 -0.217706 -0.242905 0.374413 -0.033823 -0.000258 -0.053276 0.032178 0.057319 0.096571 -0.005066 6.613526 -18.130181 16.013232 67.249132 14.780061 -13.364558 -6.166294 52.872664 -3.982705 -8.794169 11.939996 -1.045585 0.085290 -0.297276 -0.013728 0.050270 -0.024732 -0.033575 0.051004 0.043016 0.011487 
0.472866 17.151270 -3.142179 -3.353015 -13.561097 15.859833 -13.620097 -0.351778 5.792702 0.437670 1.102182 -31.935531 -8.833752 3.311843 1.100636 1.639312 -1.867707 6.702126 0.013488 -0.019131 -37.368574 13.611841 0.926908 -3.134045 10.411993 -7.871981 -25.697867 6.447459 -2.579677 43.517249 -1.609381 -4.357901 -6.289563 -0.279362 0.175313 -36.736936 -4.277290 4.556588 -6.318503 0.163189 -1.712752 -4.694213 -5.669839 -2.714096 2.844622 11.293074 -11.617633 -10.263741 -2.394634 -0.365674 -0.252194 0.011498 0.007999 0.079076 5.177618 7.704364 -2.625333 -63.298077 -1.634463 18.866517 1.021953 -34.805956 -0.744995 5.094879 -4.982250 -0.238242 -0.240433 0.364499 -0.029767 0.000608 -0.055339 0.041426 0.060163 0.105994 0.001493 8.457140 -22.082297 11.349800 66.778010 13.719892 -9.323417 -5.602301 58.837782 -3.412140 -8.752053 12.073090 -1.049805 0.197946 -0.356511 -0.015671 0.059151 -0.039245 -0.020922 0.064383 0.057092 0.016521 
0.487432 17.280282 -3.119554 -3.509315 -15.823196 20.827569 -12.809849 -1.937818 3.996738 -1.029571 3.689058 -37.699566 -9.413563 1.326019 5.851103 0.717971 2.173853 7.815525 -0.265969 0.052872 -37.420503 13.379600 1.008649 -1.973991 9.606483 -4.437925 -26.919739 9.743682 -0.162657 36.311717 -1.603261 -4.016336 -9.488766 -0.927278 0.262644 -38.095902 -2.743702 6.511966 -13.036485 1.160387 -2.305925 -5.719957 -7.434382 -3.869655 4.482934 11.143185 -12.470948 -10.218764 -2.414819 -0.341663 -0.530515 0.003874 -0.000131 0.097412 6.383511 11.518669 -1.365374 -56.324957 1.799847 20.775872 3.862456 -43.150272 -3.139632 4.833932 -5.331099 -0.301556 -0.226477 0.386870 -0.021011 -0.006771 -0.057168 0.040611 0.042947 0.107876 0.016259 13.728949 -20.745770 7.854443 65.512224 12.808096 -6.014374 -4.511008 59.994533 -2.483236 -8.047870 11.066881 -0.893148 0.326658 -0.500792 -0.019425 0.060860 -0.047197 -0.019407 0.068580 0.055152 -0.001704 
0.532836 17.429479 -3.079257 -3.174499 -18.211484 20.872741 -14.159834 0.350526 1.861430 -1.779042 4.251553 -39.641063 -9.238703 -0.519535 12.850721 -0.058878 5.198335 8.963290 -0.083900 0.122927 -39.265746 13.239623 0.212054 -0.271532 8.337287 1.098223 -24.091428 7.934279 -0.780402 29.395578 -1.277216 -3.897851 -9.163333 -1.204083 0.289332 -38.322867 -3.254126 3.029734 -15.558554 1.087840 -2.795957 -5.744196 -7.626825 -3.782094 4.389385 11.508997 -12.561922 -9.258357 -2.408315 -0.342156 -0.322323 0.001496 -0.009932 0.101351 6.496695 13.242027 -0.876691 -51.032395 6.769637 20.080731 4.153243 -52.968223 -3.550926 4.764167 -5.834848 -0.341769 -0.209748 0.445140 -0.018008 -0.011472 -0.057477 0.026942 0.027948 0.107474 0.020779 18.624613 -16.898240 12.492870 63.030045 14.052206 -1.595481 -4.829303 60.608319 -2.978058 -6.771377 10.382358 -0.721404 0.336513 -0.438071 -0.026524 0.061296 -0.044489 -0.025035 0.065420 0.046629 -0.009009 
0.584042 17.595052 -3.026113 -3.441628 -19.592179 19.162939 -14.996688 0.774334 0.824163 -3.264710 5.421408 -41.412223 -7.051822 -3.916745 21.924089 -0.435958 9.705143 9.763667 0.207790 0.143995 -40.303707 14.839242 -0.780147 1.604244 7.310439 5.098336 -21.977344 4.929763 -0.012877 27.132842 -0.461482 -6.342783 -7.669313 -0.748486 0.189806 -38.196076 -2.245676 1.387656 -15.800248 0.743057 -2.297551 -5.571517 -6.819598 -2.256618 4.011348 12.006966 -12.893400 -8.414215 -2.507431 -0.309741 -0.331744 0.000542 -0.021575 0.097129 6.288949 11.581946 -1.674932 -47.418727 10.009099 21.381598 7.464824 -61.583949 -7.129590 5.401479 -6.785386 -0.413631 -0.255514 0.354254 -0.016599 -0.017155 -0.047658 0.006632 0.012351 0.117685 0.020245 19.495272 -15.687692 11.763222 62.113400 11.115648 2.418861 -5.212771 62.812258 -3.443094 -6.648605 10.086104 -0.693831 0.285391 -0.422675 -0.022769 0.051495 -0.035862 -0.028678 0.055022 0.050733 0.005078 
0.635995 17.765628 -2.961649 -1.611615 -21.937155 16.180145 -16.116692 0.252927 2.050737 -4.315123 4.752978 -40.606017 -3.941767 -2.339993 23.123306 -1.005079 12.067141 11.967794 0.725846 0.113872 -40.952091 15.373174 -1.860229 3.179444 5.690268 7.434599 -20.776087 1.545775 0.680214 27.447927 0.273457 -8.049665 -4.667249 0.104460 -0.012464 -37.790174 -3.226114 3.597152 -11.734238 1.460696 -4.019776 -6.427771 -8.082544 -2.173320 3.156779 11.982969 -13.248670 -7.092599 -2.734188 -0.323972 0.143145 -0.004993 -0.003269 0.083922 6.401440 10.546879 -1.059512 -45.247845 10.688933 21.520268 10.096056 -70.888466 -9.691612 6.296244 -7.690546 -0.485057 -0.199743 0.238174 -0.014214 -0.015102 -0.053980 -0.021417 -0.001143 0.128698 0.023499 18.685276 -15.170875 11.019081 62.520155 8.981514 6.333489 -2.143508 67.662244 -1.489348 -6.443780 10.023042 -0.657461 0.262950 -0.338132 -0.020084 0.040136 -0.015006 -0.025467 0.050730 0.050962 0.023339 
